<?xml version="1.0" encoding="UTF-8"?><svg viewBox="0 0 25 30" xmlns="http://www.w3.org/2000/svg" xmlns:xlink="http://www.w3.org/1999/xlink"><style>:root>svg{display:none}:root>svg:target{display:block}</style><svg viewBox="0 0 25 25" id="circle" xmlns="http://www.w3.org/2000/svg"><path style="fill:none;stroke-width:2;stroke-linecap:round;stroke-linejoin:round;stroke:#000;stroke-opacity:1;stroke-miterlimit:4" d="M12 12h.011m3.99 0h.011M8 12h.015M21 12c0 4.969-4.031 9-9 9s-9-4.031-9-9 4.031-9 9-9 9 4.031 9 9Zm0 0" transform="scale(1.04167)"/></svg><svg fill="none" viewBox="0 0 25 30" id="logo" xmlns="http://www.w3.org/2000/svg"><path d="M13.794 2.61C15.809.014 18.61 0 18.61 0s.417 2.443-1.585 4.796c-2.137 2.512-4.567 2.1-4.567 2.1s-.456-1.975 1.336-4.285Zm-1.08 5.998c1.037 0 2.96-1.394 5.465-1.394 4.31 0 6.006 3 6.006 3s-3.316 1.66-3.316 5.684c0 4.54 4.131 6.106 4.131 6.106s-2.888 7.952-6.789 7.952c-1.792 0-3.185-1.181-5.072-1.181-1.924 0-3.833 1.225-5.077 1.225C4.5 30 0 22.457 0 16.393c0-5.966 3.81-9.095 7.382-9.095 2.323 0 4.125 1.31 5.332 1.31Z" fill="#000"/></svg><svg fill="none" viewBox="0 0 25 30" id="white-logo" xmlns="http://www.w3.org/2000/svg"><path d="M13.794 2.61C15.809.014 18.61 0 18.61 0s.417 2.443-1.585 4.796c-2.137 2.512-4.567 2.1-4.567 2.1s-.456-1.975 1.336-4.285Zm-1.08 5.998c1.037 0 2.96-1.394 5.465-1.394 4.31 0 6.006 3 6.006 3s-3.316 1.66-3.316 5.684c0 4.54 4.131 6.106 4.131 6.106s-2.888 7.952-6.789 7.952c-1.792 0-3.185-1.181-5.072-1.181-1.924 0-3.833 1.225-5.077 1.225C4.5 30 0 22.457 0 16.393c0-5.966 3.81-9.095 7.382-9.095 2.323 0 4.125 1.31 5.332 1.31Z" fill="#fff"/></svg></svg>