<?xml version="1.0" encoding="UTF-8"?>
<svg xmlns="http://www.w3.org/2000/svg" xmlns:xlink="http://www.w3.org/1999/xlink" width="25px" height="25px" viewBox="0 0 25 25" version="1.1">
<g id="surface1">
<path style=" stroke:none;fill-rule:evenodd;fill:rgb(0%,0%,0%);fill-opacity:1;" d="M 9.375 17.957031 L 11.457031 17.957031 L 11.457031 10.019531 L 9.375 10.019531 Z M 13.542969 17.957031 L 15.625 17.957031 L 15.625 10.019531 L 13.542969 10.019531 Z M 7.292969 19.941406 L 17.707031 19.941406 L 17.707031 8.035156 L 7.292969 8.035156 Z M 9.375 6.050781 L 15.625 6.050781 L 15.625 4.066406 L 9.375 4.066406 Z M 17.707031 6.050781 L 17.707031 2.082031 L 7.292969 2.082031 L 7.292969 6.050781 L 2.082031 6.050781 L 2.082031 8.035156 L 5.207031 8.035156 L 5.207031 21.925781 L 19.792969 21.925781 L 19.792969 8.035156 L 22.917969 8.035156 L 22.917969 6.050781 Z M 17.707031 6.050781 "/>
</g>
</svg>
