<svg width="64" height="64" viewBox="0 0 20 20" xmlns="http://www.w3.org/2000/svg"
  fill="#ffffff" stroke="#ffffff">
  <g>
    <g stroke="none" stroke-width="1" fill="none" fill-rule="evenodd">
      <g transform="translate(-140.000000, -7559.000000)" fill="#ffffff">
        <g id="icons" transform="translate(56.000000, 160.000000)">
          <path
            d="M94 7399c5.523 0 10 4.59 10 10.253 0 4.53-2.862 8.371-6.833 9.728-.507.102-.687-.218-.687-.491 0-.338.012-1.442.012-2.814 0-.956-.32-1.58-.68-1.898 2.228-.254 4.568-1.121 4.568-5.06 0-1.119-.388-2.033-1.03-2.75.104-.26.447-1.303-.098-2.715 0 0-.838-.275-2.747 1.051a9.39 9.39 0 0 0-2.505-.345 9.37 9.37 0 0 0-2.503.345c-1.91-1.326-2.75-1.051-2.75-1.051-.544 1.412-.2 2.455-.098 2.714-.64.718-1.03 1.632-1.03 2.752 0 3.928 2.334 4.808 4.555 5.067-.286.256-.545.708-.635 1.37-.57.263-2.018.716-2.91-.85 0 0-.53-.986-1.533-1.058 0 0-.975-.013-.068.623 0 0 .654.315 1.11 1.5 0 0 .586 1.83 3.368 1.21.005.857.014 1.665.014 1.909 0 .27-.184.587-.683.492-3.975-1.355-6.84-5.199-6.84-9.73 0-5.662 4.478-10.252 10-10.252"
            id="github-[#ffffff]" />
        </g>
      </g>
    </g>
  </g>
</svg>