<svg width="64" height="64" viewBox="0 0 24 24" version="1.1" xmlns="http://www.w3.org/2000/svg"
  fill="#000000">
  <g>
    <g stroke="none" stroke-width="1" fill="none" fill-rule="evenodd">
      <g transform="translate(-672.000000, -48.000000)">
        <g transform="translate(672.000000, 48.000000)">
          <path
            d="M24 0v24H0V0h24zM12.593 23.258l-.011.002-.071.035-.018.004v-.001l-.015-.005-.071-.035c-.01-.004-.02 0-.024.005l-.004.01-.017.428.006.02.01.013.104.074.015.004.012-.004.104-.074.013-.016.004-.017-.017-.427c-.002-.01-.01-.017-.017-.018zm.265-.113-.013.002-.185.093-.01.01-.003.011.018.43.005.013.008.007.201.093c.011.004.022 0 .028-.008l.004-.014-.034-.613c-.003-.012-.01-.02-.02-.022zm-.715.002a.023.023 0 0 0-.027.006l-.006.014-.034.614c0 .013.007.022.017.025l.015-.002.201-.093.009-.008h-.001l.003-.011.017-.429-.003-.011v-.001l-.01-.01-.184-.093z"
            fill-rule="nonzero" />
          <path
            d="M19.777 4.43a1.5 1.5 0 0 1 2.062 1.626l-2.27 13.757c-.218 1.326-1.675 2.088-2.892 1.427-1.018-.553-2.53-1.405-3.89-2.295-.68-.444-2.762-1.868-2.507-2.882.22-.868 3.72-4.125 5.72-6.063.786-.761.428-1.2-.5-.5-2.302 1.738-5.997 4.381-7.219 5.125-1.077.656-1.64.768-2.311.656-1.227-.203-2.364-.52-3.292-.904-1.254-.52-1.193-2.244 0-2.746l17.1-7.2z"
            fill="#ffffff" />
        </g>
      </g>
    </g>
  </g>
</svg>