<svg fill="#ffffff" width="64" height="64" viewBox="-2.5 0 32 32" xmlns="http://www.w3.org/2000/svg">
  <path
    d="M16.563 15.75c-.5-.188-.5-.906-.53-1.406-.126-1.78.5-4.5-.25-5.656-.532-.688-3.095-.625-4.657-.53-.438.062-.97.155-1.344.343s-.75.5-.75.782c0 .406.938.344 1.28.875.376.563.376 1.78.376 2.78 0 1.157-.188 2.69-.656 2.75-.72.032-1.125-.687-1.5-1.218a20.85 20.85 0 0 1-2.063-3.564c-.282-.656-.44-1.375-.845-1.656-.625-.438-1.75-.47-2.844-.438-1 .03-2.437-.094-2.718.5-.22.656.25 1.28.5 1.813 1.28 2.78 2.656 5.22 4.344 7.53 1.563 2.157 3.03 3.876 5.906 4.782.813.25 4.375.97 5.094 0 .25-.375.188-1.22.313-1.844s.28-1.25.874-1.28c.5-.032.78.405 1.094.718.344.345.625.626.875.94.594.593 1.22 1.405 1.97 1.718 1.03.438 2.624.313 4.124.25 1.22-.03 2.094-.28 2.188-1 .063-.563-.563-1.375-.938-1.844-.938-1.156-1.375-1.5-2.438-2.563-.47-.468-1.064-.968-1.064-1.53-.03-.344.25-.656.5-1 1.094-1.625 2.188-2.78 3.188-4.47.28-.5.938-1.655.688-2.218-.28-.625-1.844-.438-2.813-.438-1.25 0-2.876-.094-3.19.156-.593.406-.843 1.063-1.124 1.688-.625 1.438-1.47 2.906-2.344 4-.313.375-.906 1.156-1.25 1.03z" />
</svg>